<mxfile host="65bd71144e">
    <diagram id="VtRV-fOh-d225GwUcRwI" name="Page-1">
        <mxGraphModel dx="1570" dy="1136" grid="1" gridSize="10" guides="1" tooltips="1" connect="1" arrows="1" fold="1" page="1" pageScale="1" pageWidth="850" pageHeight="1100" math="0" shadow="0">
            <root>
                <mxCell id="0"/>
                <mxCell id="1" parent="0"/>
                <mxCell id="2" value="User" style="swimlane;fontStyle=0;align=center;verticalAlign=top;childLayout=stackLayout;horizontal=1;startSize=26;horizontalStack=0;resizeParent=1;resizeParentMax=0;resizeLast=0;collapsible=1;marginBottom=0;fillColor=#fff2cc;strokeColor=#d6b656;" parent="1" vertex="1">
                    <mxGeometry x="329" y="25" width="160" height="217" as="geometry">
                        <mxRectangle x="281" y="44" width="75" height="26" as="alternateBounds"/>
                    </mxGeometry>
                </mxCell>
                <mxCell id="3" value="#id: int&#xa;#nom: string&#xa;#email: string&#xa;#password: mixed&#xa;#role: string&#xa;#status: enum" style="text;strokeColor=none;fillColor=none;align=left;verticalAlign=top;spacingLeft=4;spacingRight=4;overflow=hidden;rotatable=0;points=[[0,0.5],[1,0.5]];portConstraint=eastwest;" parent="2" vertex="1">
                    <mxGeometry y="26" width="160" height="105" as="geometry"/>
                </mxCell>
                <mxCell id="4" value="" style="line;strokeWidth=1;fillColor=none;align=left;verticalAlign=middle;spacingTop=-1;spacingLeft=3;spacingRight=3;rotatable=0;labelPosition=right;points=[];portConstraint=eastwest;strokeColor=inherit;" parent="2" vertex="1">
                    <mxGeometry y="131" width="160" height="8" as="geometry"/>
                </mxCell>
                <mxCell id="5" value="+login()&#xa;+logout()&#xa;+register()&#xa;+updateProfile()" style="text;strokeColor=none;fillColor=none;align=left;verticalAlign=top;spacingLeft=4;spacingRight=4;overflow=hidden;rotatable=0;points=[[0,0.5],[1,0.5]];portConstraint=eastwest;" parent="2" vertex="1">
                    <mxGeometry y="139" width="160" height="78" as="geometry"/>
                </mxCell>
                <mxCell id="10" value="Admin" style="swimlane;fontStyle=0;align=center;verticalAlign=top;childLayout=stackLayout;horizontal=1;startSize=26;horizontalStack=0;resizeParent=1;resizeParentMax=0;resizeLast=0;collapsible=1;marginBottom=0;fillColor=#fff2cc;strokeColor=#d6b656;" parent="1" vertex="1">
                    <mxGeometry x="35" y="52" width="160" height="126" as="geometry">
                        <mxRectangle x="95" y="109" width="69" height="26" as="alternateBounds"/>
                    </mxGeometry>
                </mxCell>
                <mxCell id="12" value="" style="line;strokeWidth=1;fillColor=none;align=left;verticalAlign=middle;spacingTop=-1;spacingLeft=3;spacingRight=3;rotatable=0;labelPosition=right;points=[];portConstraint=eastwest;strokeColor=inherit;" parent="10" vertex="1">
                    <mxGeometry y="26" width="160" height="8" as="geometry"/>
                </mxCell>
                <mxCell id="13" value="+manageUsers()&#xa;+manageContent()&#xa;+generateReports()&#xa;+viewAnalytics()&#xa;+managePermissions()" style="text;strokeColor=none;fillColor=none;align=left;verticalAlign=top;spacingLeft=4;spacingRight=4;overflow=hidden;rotatable=0;points=[[0,0.5],[1,0.5]];portConstraint=eastwest;" parent="10" vertex="1">
                    <mxGeometry y="34" width="160" height="92" as="geometry"/>
                </mxCell>
                <mxCell id="17" value="Member" style="swimlane;fontStyle=0;align=center;verticalAlign=top;childLayout=stackLayout;horizontal=1;startSize=26;horizontalStack=0;resizeParent=1;resizeParentMax=0;resizeLast=0;collapsible=1;marginBottom=0;fillColor=#fff2cc;strokeColor=#d6b656;" parent="1" vertex="1">
                    <mxGeometry x="329" y="316" width="160" height="120" as="geometry">
                        <mxRectangle x="370" y="326" width="75" height="26" as="alternateBounds"/>
                    </mxGeometry>
                </mxCell>
                <mxCell id="19" value="" style="line;strokeWidth=1;fillColor=none;align=left;verticalAlign=middle;spacingTop=-1;spacingLeft=3;spacingRight=3;rotatable=0;labelPosition=right;points=[];portConstraint=eastwest;strokeColor=inherit;" parent="17" vertex="1">
                    <mxGeometry y="26" width="160" height="8" as="geometry"/>
                </mxCell>
                <mxCell id="20" value="+saveFavorites()&#xa;+rateContent()&#xa;+submitComment()&#xa;+createItinerary()&#xa;+shareExperience()" style="text;strokeColor=none;fillColor=none;align=left;verticalAlign=top;spacingLeft=4;spacingRight=4;overflow=hidden;rotatable=0;points=[[0,0.5],[1,0.5]];portConstraint=eastwest;" parent="17" vertex="1">
                    <mxGeometry y="34" width="160" height="86" as="geometry"/>
                </mxCell>
                <mxCell id="21" value="City" style="swimlane;fontStyle=1;align=center;verticalAlign=top;childLayout=stackLayout;horizontal=1;startSize=26;horizontalStack=0;resizeParent=1;resizeParentMax=0;resizeLast=0;collapsible=1;marginBottom=0;fillColor=#fff2cc;strokeColor=#d6b656;" parent="1" vertex="1">
                    <mxGeometry x="587.5" y="25" width="160" height="167" as="geometry">
                        <mxRectangle x="576" y="142" width="80" height="26" as="alternateBounds"/>
                    </mxGeometry>
                </mxCell>
                <mxCell id="22" value="+ id: int&#xa;+name: string&#xa;+description: string&#xa;+image: string&#xa;+coordinates: string" style="text;strokeColor=none;fillColor=none;align=left;verticalAlign=top;spacingLeft=4;spacingRight=4;overflow=hidden;rotatable=0;points=[[0,0.5],[1,0.5]];portConstraint=eastwest;" parent="21" vertex="1">
                    <mxGeometry y="26" width="160" height="89" as="geometry"/>
                </mxCell>
                <mxCell id="23" value="" style="line;strokeWidth=1;fillColor=none;align=left;verticalAlign=middle;spacingTop=-1;spacingLeft=3;spacingRight=3;rotatable=0;labelPosition=right;points=[];portConstraint=eastwest;strokeColor=inherit;" parent="21" vertex="1">
                    <mxGeometry y="115" width="160" height="8" as="geometry"/>
                </mxCell>
                <mxCell id="24" value="+getAttractions()&#xa;+getWeather()" style="text;strokeColor=none;fillColor=none;align=left;verticalAlign=top;spacingLeft=4;spacingRight=4;overflow=hidden;rotatable=0;points=[[0,0.5],[1,0.5]];portConstraint=eastwest;" parent="21" vertex="1">
                    <mxGeometry y="123" width="160" height="44" as="geometry"/>
                </mxCell>
                <mxCell id="45" value="Favorite" style="swimlane;fontStyle=0;align=center;verticalAlign=top;childLayout=stackLayout;horizontal=1;startSize=26;horizontalStack=0;resizeParent=1;resizeParentMax=0;resizeLast=0;collapsible=1;marginBottom=0;fillColor=#fff2cc;strokeColor=#d6b656;" parent="1" vertex="1">
                    <mxGeometry x="61" y="540" width="160" height="154" as="geometry">
                        <mxRectangle x="173" y="468" width="75" height="26" as="alternateBounds"/>
                    </mxGeometry>
                </mxCell>
                <mxCell id="46" value="+id: int&#xa;+member_id: int&#xa;+favorable_id: int&#xa;+favorable_type: enum" style="text;strokeColor=none;fillColor=none;align=left;verticalAlign=top;spacingLeft=4;spacingRight=4;overflow=hidden;rotatable=0;points=[[0,0.5],[1,0.5]];portConstraint=eastwest;" parent="45" vertex="1">
                    <mxGeometry y="26" width="160" height="75" as="geometry"/>
                </mxCell>
                <mxCell id="47" value="" style="line;strokeWidth=1;fillColor=none;align=left;verticalAlign=middle;spacingTop=-1;spacingLeft=3;spacingRight=3;rotatable=0;labelPosition=right;points=[];portConstraint=eastwest;strokeColor=inherit;" parent="45" vertex="1">
                    <mxGeometry y="101" width="160" height="8" as="geometry"/>
                </mxCell>
                <mxCell id="48" value="+addFavorite()&#xa;+removeFavorite()" style="text;strokeColor=none;fillColor=none;align=left;verticalAlign=top;spacingLeft=4;spacingRight=4;overflow=hidden;rotatable=0;points=[[0,0.5],[1,0.5]];portConstraint=eastwest;" parent="45" vertex="1">
                    <mxGeometry y="109" width="160" height="45" as="geometry"/>
                </mxCell>
                <mxCell id="50" value="" style="endArrow=block;endSize=16;endFill=0;html=1;exitX=1.009;exitY=0.19;exitDx=0;exitDy=0;entryX=0;entryY=0.5;entryDx=0;entryDy=0;exitPerimeter=0;" parent="1" source="13" target="3" edge="1">
                    <mxGeometry width="160" relative="1" as="geometry">
                        <mxPoint x="117" y="55" as="sourcePoint"/>
                        <mxPoint x="277" y="55" as="targetPoint"/>
                    </mxGeometry>
                </mxCell>
                <mxCell id="53" value="" style="endArrow=block;endSize=16;endFill=0;html=1;entryX=0.5;entryY=1;entryDx=0;entryDy=0;exitX=0.5;exitY=0;exitDx=0;exitDy=0;" parent="1" source="17" target="2" edge="1">
                    <mxGeometry width="160" relative="1" as="geometry">
                        <mxPoint x="137" y="75.00000000000003" as="sourcePoint"/>
                        <mxPoint x="297" y="75.00000000000003" as="targetPoint"/>
                    </mxGeometry>
                </mxCell>
                <mxCell id="65" value="" style="endArrow=diamondThin;endFill=0;endSize=24;html=1;" parent="1" source="79" target="29" edge="1">
                    <mxGeometry width="160" relative="1" as="geometry">
                        <mxPoint x="460.9999999999998" y="606" as="sourcePoint"/>
                        <mxPoint x="350" y="413" as="targetPoint"/>
                    </mxGeometry>
                </mxCell>
                <mxCell id="71" value="2" style="text;html=1;align=center;verticalAlign=middle;resizable=0;points=[];autosize=1;strokeColor=none;fillColor=none;" parent="1" vertex="1">
                    <mxGeometry x="677" y="872" width="25" height="26" as="geometry"/>
                </mxCell>
                <mxCell id="74" value="Stadium" style="swimlane;fontStyle=1;align=center;verticalAlign=top;childLayout=stackLayout;horizontal=1;startSize=26;horizontalStack=0;resizeParent=1;resizeParentMax=0;resizeLast=0;collapsible=1;marginBottom=0;fillColor=#fff2cc;strokeColor=#d6b656;" parent="1" vertex="1">
                    <mxGeometry x="587.5" y="284" width="160" height="178" as="geometry">
                        <mxRectangle x="576" y="142" width="80" height="26" as="alternateBounds"/>
                    </mxGeometry>
                </mxCell>
                <mxCell id="75" value="+ id: int&#xa;+name: string&#xa;+city_id: string&#xa;+adress: string&#xa;+capacity: string&#xa;image: string" style="text;strokeColor=none;fillColor=none;align=left;verticalAlign=top;spacingLeft=4;spacingRight=4;overflow=hidden;rotatable=0;points=[[0,0.5],[1,0.5]];portConstraint=eastwest;" parent="74" vertex="1">
                    <mxGeometry y="26" width="160" height="100" as="geometry"/>
                </mxCell>
                <mxCell id="76" value="" style="line;strokeWidth=1;fillColor=none;align=left;verticalAlign=middle;spacingTop=-1;spacingLeft=3;spacingRight=3;rotatable=0;labelPosition=right;points=[];portConstraint=eastwest;strokeColor=inherit;" parent="74" vertex="1">
                    <mxGeometry y="126" width="160" height="8" as="geometry"/>
                </mxCell>
                <mxCell id="77" value="+getUpcomingMatches()&#xa;+getCapacityStatus()" style="text;strokeColor=none;fillColor=none;align=left;verticalAlign=top;spacingLeft=4;spacingRight=4;overflow=hidden;rotatable=0;points=[[0,0.5],[1,0.5]];portConstraint=eastwest;" parent="74" vertex="1">
                    <mxGeometry y="134" width="160" height="44" as="geometry"/>
                </mxCell>
                <mxCell id="29" value="Team" style="swimlane;fontStyle=0;align=center;verticalAlign=top;childLayout=stackLayout;horizontal=1;startSize=26;horizontalStack=0;resizeParent=1;resizeParentMax=0;resizeLast=0;collapsible=1;marginBottom=0;fillColor=#fff2cc;strokeColor=#d6b656;" parent="1" vertex="1">
                    <mxGeometry x="587.5" y="915" width="160" height="147" as="geometry">
                        <mxRectangle x="491" y="622" width="75" height="26" as="alternateBounds"/>
                    </mxGeometry>
                </mxCell>
                <mxCell id="30" value="+id: int&#xa;+name: string&#xa;+group: string&#xa;+flag: string" style="text;strokeColor=none;fillColor=none;align=left;verticalAlign=top;spacingLeft=4;spacingRight=4;overflow=hidden;rotatable=0;points=[[0,0.5],[1,0.5]];portConstraint=eastwest;" parent="29" vertex="1">
                    <mxGeometry y="26" width="160" height="74" as="geometry"/>
                </mxCell>
                <mxCell id="31" value="" style="line;strokeWidth=1;fillColor=none;align=left;verticalAlign=middle;spacingTop=-1;spacingLeft=3;spacingRight=3;rotatable=0;labelPosition=right;points=[];portConstraint=eastwest;strokeColor=inherit;" parent="29" vertex="1">
                    <mxGeometry y="100" width="160" height="8" as="geometry"/>
                </mxCell>
                <mxCell id="32" value="+getTeamInfo()&#xa;+getMatches()&#xa;" style="text;strokeColor=none;fillColor=none;align=left;verticalAlign=top;spacingLeft=4;spacingRight=4;overflow=hidden;rotatable=0;points=[[0,0.5],[1,0.5]];portConstraint=eastwest;" parent="29" vertex="1">
                    <mxGeometry y="108" width="160" height="39" as="geometry"/>
                </mxCell>
                <mxCell id="95" value="Article" style="swimlane;fontStyle=0;align=center;verticalAlign=top;childLayout=stackLayout;horizontal=1;startSize=26;horizontalStack=0;resizeParent=1;resizeParentMax=0;resizeLast=0;collapsible=1;marginBottom=0;fillColor=#fff2cc;strokeColor=#d6b656;" parent="1" vertex="1">
                    <mxGeometry x="35" y="248" width="161" height="174" as="geometry">
                        <mxRectangle x="491" y="622" width="75" height="26" as="alternateBounds"/>
                    </mxGeometry>
                </mxCell>
                <mxCell id="96" value="+id: int&#xa;+title: string&#xa;+content: text&#xa;+author_id: datetime&#xa;+publication_date: date&#xa;+image: string" style="text;strokeColor=none;fillColor=none;align=left;verticalAlign=top;spacingLeft=4;spacingRight=4;overflow=hidden;rotatable=0;points=[[0,0.5],[1,0.5]];portConstraint=eastwest;" parent="95" vertex="1">
                    <mxGeometry y="26" width="161" height="100" as="geometry"/>
                </mxCell>
                <mxCell id="97" value="" style="line;strokeWidth=1;fillColor=none;align=left;verticalAlign=middle;spacingTop=-1;spacingLeft=3;spacingRight=3;rotatable=0;labelPosition=right;points=[];portConstraint=eastwest;strokeColor=inherit;" parent="95" vertex="1">
                    <mxGeometry y="126" width="161" height="8" as="geometry"/>
                </mxCell>
                <mxCell id="98" value="+publish()&#xa;+archive()" style="text;strokeColor=none;fillColor=none;align=left;verticalAlign=top;spacingLeft=4;spacingRight=4;overflow=hidden;rotatable=0;points=[[0,0.5],[1,0.5]];portConstraint=eastwest;" parent="95" vertex="1">
                    <mxGeometry y="134" width="161" height="40" as="geometry"/>
                </mxCell>
                <mxCell id="99" value="" style="endArrow=none;html=1;" parent="1" source="95" target="10" edge="1">
                    <mxGeometry width="50" height="50" relative="1" as="geometry">
                        <mxPoint x="87" y="433" as="sourcePoint"/>
                        <mxPoint x="220" y="218" as="targetPoint"/>
                    </mxGeometry>
                </mxCell>
                <mxCell id="108" value="0...*" style="text;html=1;align=center;verticalAlign=middle;resizable=0;points=[];autosize=1;strokeColor=none;fillColor=none;" parent="1" vertex="1">
                    <mxGeometry x="671" y="769" width="39" height="26" as="geometry"/>
                </mxCell>
                <mxCell id="111" value="" style="endArrow=none;html=1;startArrow=diamond;startFill=1;" parent="1" source="77" target="79" edge="1">
                    <mxGeometry width="50" height="50" relative="1" as="geometry">
                        <mxPoint x="702" y="330" as="sourcePoint"/>
                        <mxPoint x="812" y="516" as="targetPoint"/>
                        <Array as="points"/>
                    </mxGeometry>
                </mxCell>
                <mxCell id="113" value="" style="endArrow=none;html=1;startArrow=diamond;startFill=1;entryX=0.5;entryY=0;entryDx=0;entryDy=0;" parent="1" source="21" target="74" edge="1">
                    <mxGeometry width="50" height="50" relative="1" as="geometry">
                        <mxPoint x="719" y="193" as="sourcePoint"/>
                        <mxPoint x="717" y="262" as="targetPoint"/>
                        <Array as="points"/>
                    </mxGeometry>
                </mxCell>
                <mxCell id="120" value="" style="endArrow=classic;html=1;dashed=1;startArrow=none;startFill=0;endFill=1;" parent="1" source="45" target="95" edge="1">
                    <mxGeometry width="50" height="50" relative="1" as="geometry">
                        <mxPoint x="66" y="733" as="sourcePoint"/>
                        <mxPoint x="125" y="602" as="targetPoint"/>
                    </mxGeometry>
                </mxCell>
                <mxCell id="139" value="" style="endArrow=classic;html=1;dashed=1;startArrow=none;startFill=0;endFill=1;" parent="1" source="45" target="79" edge="1">
                    <mxGeometry width="50" height="50" relative="1" as="geometry">
                        <mxPoint x="200" y="771" as="sourcePoint"/>
                        <mxPoint x="714" y="100" as="targetPoint"/>
                        <Array as="points"/>
                    </mxGeometry>
                </mxCell>
                <mxCell id="79" value="Match" style="swimlane;fontStyle=1;align=center;verticalAlign=top;childLayout=stackLayout;horizontal=1;startSize=26;horizontalStack=0;resizeParent=1;resizeParentMax=0;resizeLast=0;collapsible=1;marginBottom=0;fillColor=#fff2cc;strokeColor=#d6b656;" parent="1" vertex="1">
                    <mxGeometry x="591.5" y="576" width="160" height="190" as="geometry">
                        <mxRectangle x="576" y="142" width="80" height="26" as="alternateBounds"/>
                    </mxGeometry>
                </mxCell>
                <mxCell id="80" value="+ id: int&#xa;+date: datetime&#xa;+stadium_id: string&#xa;+team1: string&#xa;+team2: string&#xa;+status: string" style="text;strokeColor=none;fillColor=none;align=left;verticalAlign=top;spacingLeft=4;spacingRight=4;overflow=hidden;rotatable=0;points=[[0,0.5],[1,0.5]];portConstraint=eastwest;" parent="79" vertex="1">
                    <mxGeometry y="26" width="160" height="96" as="geometry"/>
                </mxCell>
                <mxCell id="81" value="" style="line;strokeWidth=1;fillColor=none;align=left;verticalAlign=middle;spacingTop=-1;spacingLeft=3;spacingRight=3;rotatable=0;labelPosition=right;points=[];portConstraint=eastwest;strokeColor=inherit;" parent="79" vertex="1">
                    <mxGeometry y="122" width="160" height="8" as="geometry"/>
                </mxCell>
                <mxCell id="82" value="+getScore()&#xa;+updateStatus()&#xa;+getLocation()" style="text;strokeColor=none;fillColor=none;align=left;verticalAlign=top;spacingLeft=4;spacingRight=4;overflow=hidden;rotatable=0;points=[[0,0.5],[1,0.5]];portConstraint=eastwest;" parent="79" vertex="1">
                    <mxGeometry y="130" width="160" height="60" as="geometry"/>
                </mxCell>
                <mxCell id="141" value="" style="endArrow=classic;html=1;dashed=1;startArrow=none;startFill=0;endFill=1;" parent="1" source="45" target="74" edge="1">
                    <mxGeometry width="50" height="50" relative="1" as="geometry">
                        <mxPoint x="224" y="903" as="sourcePoint"/>
                        <mxPoint x="771" y="757" as="targetPoint"/>
                        <Array as="points"/>
                    </mxGeometry>
                </mxCell>
                <mxCell id="142" value="1" style="text;html=1;align=center;verticalAlign=middle;resizable=0;points=[];autosize=1;strokeColor=none;fillColor=none;" vertex="1" parent="1">
                    <mxGeometry x="115" y="180" width="25" height="26" as="geometry"/>
                </mxCell>
                <mxCell id="144" value="0...*" style="text;html=1;align=center;verticalAlign=middle;resizable=0;points=[];autosize=1;strokeColor=none;fillColor=none;" vertex="1" parent="1">
                    <mxGeometry x="111" y="222" width="39" height="26" as="geometry"/>
                </mxCell>
                <mxCell id="145" value="" style="endArrow=none;html=1;startArrow=diamond;startFill=1;" edge="1" parent="1" source="17" target="45">
                    <mxGeometry width="50" height="50" relative="1" as="geometry">
                        <mxPoint x="264" y="387" as="sourcePoint"/>
                        <mxPoint x="267" y="479" as="targetPoint"/>
                        <Array as="points"/>
                    </mxGeometry>
                </mxCell>
                <mxCell id="146" value="1" style="text;html=1;align=center;verticalAlign=middle;resizable=0;points=[];autosize=1;strokeColor=none;fillColor=none;" vertex="1" parent="1">
                    <mxGeometry x="329" y="443" width="25" height="26" as="geometry"/>
                </mxCell>
                <mxCell id="147" value="0...*" style="text;html=1;align=center;verticalAlign=middle;resizable=0;points=[];autosize=1;strokeColor=none;fillColor=none;" vertex="1" parent="1">
                    <mxGeometry x="221" y="534" width="39" height="26" as="geometry"/>
                </mxCell>
                <mxCell id="148" value="1" style="text;html=1;align=center;verticalAlign=middle;resizable=0;points=[];autosize=1;strokeColor=none;fillColor=none;" vertex="1" parent="1">
                    <mxGeometry x="671" y="192" width="25" height="26" as="geometry"/>
                </mxCell>
                <mxCell id="149" value="0...*" style="text;html=1;align=center;verticalAlign=middle;resizable=0;points=[];autosize=1;strokeColor=none;fillColor=none;" vertex="1" parent="1">
                    <mxGeometry x="671" y="258" width="39" height="26" as="geometry"/>
                </mxCell>
                <mxCell id="150" value="1" style="text;html=1;align=center;verticalAlign=middle;resizable=0;points=[];autosize=1;strokeColor=none;fillColor=none;" vertex="1" parent="1">
                    <mxGeometry x="677" y="469" width="25" height="26" as="geometry"/>
                </mxCell>
                <mxCell id="151" value="0...*" style="text;html=1;align=center;verticalAlign=middle;resizable=0;points=[];autosize=1;strokeColor=none;fillColor=none;" vertex="1" parent="1">
                    <mxGeometry x="677" y="544" width="39" height="26" as="geometry"/>
                </mxCell>
                <mxCell id="152" value="0...*" style="text;html=1;align=center;verticalAlign=middle;resizable=0;points=[];autosize=1;strokeColor=none;fillColor=none;" vertex="1" parent="1">
                    <mxGeometry x="226" y="581" width="39" height="26" as="geometry"/>
                </mxCell>
                <mxCell id="153" value="1" style="text;html=1;align=center;verticalAlign=middle;resizable=0;points=[];autosize=1;strokeColor=none;fillColor=none;" vertex="1" parent="1">
                    <mxGeometry x="558" y="428" width="25" height="26" as="geometry"/>
                </mxCell>
                <mxCell id="154" value="0...*" style="text;html=1;align=center;verticalAlign=middle;resizable=0;points=[];autosize=1;strokeColor=none;fillColor=none;" vertex="1" parent="1">
                    <mxGeometry x="226" y="637" width="39" height="26" as="geometry"/>
                </mxCell>
                <mxCell id="155" value="1" style="text;html=1;align=center;verticalAlign=middle;resizable=0;points=[];autosize=1;strokeColor=none;fillColor=none;" vertex="1" parent="1">
                    <mxGeometry x="558" y="676" width="25" height="26" as="geometry"/>
                </mxCell>
                <mxCell id="156" value="" style="endArrow=none;html=1;" edge="1" parent="1" source="168" target="10">
                    <mxGeometry width="50" height="50" relative="1" as="geometry">
                        <mxPoint x="568" y="9" as="sourcePoint"/>
                        <mxPoint x="180" y="13.618823529411713" as="targetPoint"/>
                        <Array as="points"/>
                    </mxGeometry>
                </mxCell>
                <mxCell id="157" value="" style="endArrow=none;html=1;" edge="1" parent="1" source="164" target="10">
                    <mxGeometry width="50" height="50" relative="1" as="geometry">
                        <mxPoint x="598" y="52" as="sourcePoint"/>
                        <mxPoint x="205" y="76" as="targetPoint"/>
                        <Array as="points"/>
                    </mxGeometry>
                </mxCell>
                <mxCell id="158" value="" style="endArrow=none;html=1;" edge="1" parent="1" source="163" target="10">
                    <mxGeometry width="50" height="50" relative="1" as="geometry">
                        <mxPoint x="597" y="349" as="sourcePoint"/>
                        <mxPoint x="202" y="188" as="targetPoint"/>
                        <Array as="points"/>
                    </mxGeometry>
                </mxCell>
                <mxCell id="159" value="" style="endArrow=none;html=1;" edge="1" parent="1" source="162" target="10">
                    <mxGeometry width="50" height="50" relative="1" as="geometry">
                        <mxPoint x="602" y="644" as="sourcePoint"/>
                        <mxPoint x="164" y="188" as="targetPoint"/>
                        <Array as="points"/>
                    </mxGeometry>
                </mxCell>
                <mxCell id="160" value="0...*" style="text;html=1;align=center;verticalAlign=middle;resizable=0;points=[];autosize=1;strokeColor=none;fillColor=none;" vertex="1" parent="1">
                    <mxGeometry x="134" y="512" width="39" height="26" as="geometry"/>
                </mxCell>
                <mxCell id="161" value="1" style="text;html=1;align=center;verticalAlign=middle;resizable=0;points=[];autosize=1;strokeColor=none;fillColor=none;" vertex="1" parent="1">
                    <mxGeometry x="128.5" y="428" width="25" height="26" as="geometry"/>
                </mxCell>
                <mxCell id="165" value="" style="endArrow=none;html=1;" edge="1" parent="1" source="79" target="163">
                    <mxGeometry width="50" height="50" relative="1" as="geometry">
                        <mxPoint x="592" y="634" as="sourcePoint"/>
                        <mxPoint x="173" y="178" as="targetPoint"/>
                        <Array as="points">
                            <mxPoint x="457" y="573"/>
                            <mxPoint x="294" y="439"/>
                            <mxPoint x="257" y="342"/>
                            <mxPoint x="250" y="262"/>
                        </Array>
                    </mxGeometry>
                </mxCell>
                <mxCell id="163" value="1" style="text;html=1;align=center;verticalAlign=middle;resizable=0;points=[];autosize=1;strokeColor=none;fillColor=none;" vertex="1" parent="1">
                    <mxGeometry x="184" y="188" width="25" height="26" as="geometry"/>
                </mxCell>
                <mxCell id="166" value="" style="endArrow=none;html=1;" edge="1" parent="1" source="29" target="162">
                    <mxGeometry width="50" height="50" relative="1" as="geometry">
                        <mxPoint x="610" y="915" as="sourcePoint"/>
                        <mxPoint x="158" y="178" as="targetPoint"/>
                        <Array as="points">
                            <mxPoint x="391" y="635"/>
                            <mxPoint x="276" y="467"/>
                            <mxPoint x="251" y="373"/>
                            <mxPoint x="218" y="266"/>
                        </Array>
                    </mxGeometry>
                </mxCell>
                <mxCell id="162" value="1" style="text;html=1;align=center;verticalAlign=middle;resizable=0;points=[];autosize=1;strokeColor=none;fillColor=none;" vertex="1" parent="1">
                    <mxGeometry x="164" y="188" width="25" height="26" as="geometry"/>
                </mxCell>
                <mxCell id="167" value="" style="endArrow=none;html=1;" edge="1" parent="1" source="74" target="164">
                    <mxGeometry width="50" height="50" relative="1" as="geometry">
                        <mxPoint x="588" y="339" as="sourcePoint"/>
                        <mxPoint x="192" y="178" as="targetPoint"/>
                        <Array as="points">
                            <mxPoint x="536" y="317"/>
                            <mxPoint x="426" y="299"/>
                            <mxPoint x="311" y="276"/>
                        </Array>
                    </mxGeometry>
                </mxCell>
                <mxCell id="164" value="1" style="text;html=1;align=center;verticalAlign=middle;resizable=0;points=[];autosize=1;strokeColor=none;fillColor=none;" vertex="1" parent="1">
                    <mxGeometry x="211" y="190" width="25" height="26" as="geometry"/>
                </mxCell>
                <mxCell id="169" value="" style="endArrow=none;html=1;" edge="1" parent="1" source="21" target="168">
                    <mxGeometry width="50" height="50" relative="1" as="geometry">
                        <mxPoint x="588" y="42" as="sourcePoint"/>
                        <mxPoint x="195" y="66" as="targetPoint"/>
                        <Array as="points">
                            <mxPoint x="551" y="11"/>
                            <mxPoint x="289" y="9"/>
                        </Array>
                    </mxGeometry>
                </mxCell>
                <mxCell id="168" value="1" style="text;html=1;align=center;verticalAlign=middle;resizable=0;points=[];autosize=1;strokeColor=none;fillColor=none;" vertex="1" parent="1">
                    <mxGeometry x="201" y="33" width="25" height="26" as="geometry"/>
                </mxCell>
                <mxCell id="173" value="0...*" style="text;html=1;align=center;verticalAlign=middle;resizable=0;points=[];autosize=1;strokeColor=none;fillColor=none;" vertex="1" parent="1">
                    <mxGeometry x="564" y="892" width="39" height="26" as="geometry"/>
                </mxCell>
                <mxCell id="176" value="0...*" style="text;html=1;align=center;verticalAlign=middle;resizable=0;points=[];autosize=1;strokeColor=none;fillColor=none;" vertex="1" parent="1">
                    <mxGeometry x="544" y="581" width="39" height="26" as="geometry"/>
                </mxCell>
                <mxCell id="177" value="0...*" style="text;html=1;align=center;verticalAlign=middle;resizable=0;points=[];autosize=1;strokeColor=none;fillColor=none;" vertex="1" parent="1">
                    <mxGeometry x="552.5" y="300" width="39" height="26" as="geometry"/>
                </mxCell>
                <mxCell id="178" value="0...*" style="text;html=1;align=center;verticalAlign=middle;resizable=0;points=[];autosize=1;strokeColor=none;fillColor=none;" vertex="1" parent="1">
                    <mxGeometry x="546" y="45" width="39" height="26" as="geometry"/>
                </mxCell>
                <mxCell id="180" value="" style="endArrow=none;html=1;" edge="1" parent="1" source="182" target="17">
                    <mxGeometry width="50" height="50" relative="1" as="geometry">
                        <mxPoint x="125" y="258" as="sourcePoint"/>
                        <mxPoint x="125" y="188" as="targetPoint"/>
                    </mxGeometry>
                </mxCell>
                <mxCell id="181" value="" style="endArrow=none;html=1;" edge="1" parent="1" source="95" target="179">
                    <mxGeometry width="50" height="50" relative="1" as="geometry">
                        <mxPoint x="196" y="346" as="sourcePoint"/>
                        <mxPoint x="329" y="365" as="targetPoint"/>
                    </mxGeometry>
                </mxCell>
                <mxCell id="179" value="1" style="text;html=1;align=center;verticalAlign=middle;resizable=0;points=[];autosize=1;strokeColor=none;fillColor=none;" vertex="1" parent="1">
                    <mxGeometry x="201" y="330" width="25" height="26" as="geometry"/>
                </mxCell>
                <mxCell id="183" value="" style="endArrow=none;html=1;" edge="1" parent="1" source="179" target="182">
                    <mxGeometry width="50" height="50" relative="1" as="geometry">
                        <mxPoint x="226" y="345" as="sourcePoint"/>
                        <mxPoint x="329" y="362" as="targetPoint"/>
                    </mxGeometry>
                </mxCell>
                <mxCell id="182" value="0...*" style="text;html=1;align=center;verticalAlign=middle;resizable=0;points=[];autosize=1;strokeColor=none;fillColor=none;" vertex="1" parent="1">
                    <mxGeometry x="283" y="346" width="39" height="26" as="geometry"/>
                </mxCell>
            </root>
        </mxGraphModel>
    </diagram>
</mxfile>
